<!DOCTYPE svg PUBLIC "-//W3C//DTD SVG 1.1//EN" "http://www.w3.org/Graphics/SVG/1.1/DTD/svg11.dtd">
<!-- Uploaded to: SVG Repo, www.svgrepo.com, Transformed by: SVG Repo Mixer Tools -->
<svg fill="#000000" width="220px" height="220px" viewBox="0 0 32.00 32.00" version="1.1" xmlns="http://www.w3.org/2000/svg" stroke="#000000" stroke-width="1.3119999999999998">
<g id="SVGRepo_bgCarrier" stroke-width="0"/>
<g id="SVGRepo_tracerCarrier" stroke-linecap="round" stroke-linejoin="round"/>
<g id="SVGRepo_iconCarrier"> <title>bars-sort</title> <path d="M30 6.749h-28c-0.69 0-1.25 0.56-1.25 1.25s0.56 1.25 1.25 1.25v0h28c0.69 0 1.25-0.56 1.25-1.25s-0.56-1.25-1.25-1.25v0zM18 14.75h-16c-0.69 0-1.25 0.56-1.25 1.25s0.56 1.25 1.25 1.25v0h16c0.69 0 1.25-0.56 1.25-1.25s-0.56-1.25-1.25-1.25v0zM8.053 22.75h-6.053c-0.69 0-1.25 0.56-1.25 1.25s0.56 1.25 1.25 1.25v0h6.053c0.69 0 1.25-0.56 1.25-1.25s-0.56-1.25-1.25-1.25v0z"/> </g>
</svg>