<svg xmlns="http://www.w3.org/2000/svg" x="0px" y="0px" width="100" height="100" viewBox="0,0,256,256">
<g fill="#7a7a7a" fill-rule="nonzero" stroke="none" stroke-width="1" stroke-linecap="butt" stroke-linejoin="miter" stroke-miterlimit="10" stroke-dasharray="" stroke-dashoffset="0" font-family="none" font-weight="none" font-size="none" text-anchor="none" style="mix-blend-mode: normal"><g transform="scale(8.53333,8.53333)"><path d="M15,3c-6.627,0 -12,5.373 -12,12c0,6.627 5.373,12 12,12c6.627,0 12,-5.373 12,-12c0,-6.627 -5.373,-12 -12,-12zM16,16h-8.005c-0.55,0 -0.995,-0.445 -0.995,-0.995v-0.011c0,-0.549 0.445,-0.994 0.995,-0.994h6.005v-8.005c0,-0.55 0.445,-0.995 0.995,-0.995h0.011c0.549,0 0.994,0.445 0.994,0.995z"></path></g></g>
</svg>
